<?xml version="1.0"?>
<svg xmlns:rdf="http://www.w3.org/1999/02/22-rdf-syntax-ns#" xmlns="http://www.w3.org/2000/svg" xmlns:cc="http://creativecommons.org/ns#" xmlns:xlink="http://www.w3.org/1999/xlink" xmlns:dc="http://purl.org/dc/elements/1.1/" xmlns:svg="http://www.w3.org/2000/svg" id="Layer_1" space="preserve" viewBox="0 0 500 500" version="1.1">
  <defs id="defs29">
    <linearGradient id="linearGradient7381-7">
      <stop id="stop7383-7" stop-color="#babdb6" offset="0"/>
      <stop id="stop7385-5" stop-color="#fff" offset="1"/>
    </linearGradient>
    <linearGradient id="linearGradient7444-2">
      <stop id="stop7446-2" stop-color="#888a85" offset="0"/>
      <stop id="stop7448-4" stop-color="#555753" offset="1"/>
    </linearGradient>
    <linearGradient id="linearGradient5443-0">
      <stop id="stop5445-3" stop-color="#fff" offset="0"/>
      <stop id="stop5447-0" stop-color="#fff" stop-opacity="0" offset="1"/>
    </linearGradient>
    <linearGradient id="linearGradient6221-6">
      <stop id="stop6223-4" offset="0"/>
      <stop id="stop6225-3" stop-opacity="0" offset="1"/>
    </linearGradient>
    <linearGradient id="linearGradient21004-8">
      <stop id="stop21006-0" stop-color="#996200" offset="0"/>
      <stop id="stop21008-4" stop-color="#593900" offset="1"/>
    </linearGradient>
    <filter id="filter45683" width="1.2226" y="-.12601" x="-.11132" height="1.252" color-interpolation-filters="sRGB">
      <feGaussianBlur id="feGaussianBlur45685" stdDeviation="1.0099766"/>
    </filter>
    <radialGradient id="radialGradient6395" gradientUnits="userSpaceOnUse" cy="469.46" cx="975.19" gradientTransform="matrix(1.335 .10019 -.10581 1.1912 -9.1405 -176.66)" r="8.9147">
      <stop id="stop47575-1" stop-color="#fff" offset="0"/>
      <stop id="stop47577-9" stop-color="#fbdea9" offset="1"/>
    </radialGradient>
    <linearGradient id="linearGradient6397" x1="1123.6" xlink:href="#linearGradient21004-8" gradientUnits="userSpaceOnUse" y1="708.09" gradientTransform="translate(101.21 -243.74)" x2="1135.9" y2="722.4"/>
    <linearGradient id="linearGradient6399" x1="1121.2" xlink:href="#linearGradient5443-0" gradientUnits="userSpaceOnUse" y1="711.39" gradientTransform="translate(101.69 -243.42)" x2="1132" y2="716.93"/>
    <linearGradient id="linearGradient6401" x1="1152.1" xlink:href="#linearGradient21004-8" gradientUnits="userSpaceOnUse" y1="721.73" gradientTransform="translate(310.34 -122.24)" x2="1126.7" y2="688.86"/>
    <linearGradient id="linearGradient6403" x1="1152.1" xlink:href="#linearGradient21004-8" gradientUnits="userSpaceOnUse" y1="721.73" gradientTransform="translate(99.614 -242.64)" x2="1126.7" y2="688.86"/>
    <linearGradient id="linearGradient6405" x1="1128" xlink:href="#linearGradient5443-0" gradientUnits="userSpaceOnUse" y1="698.3" gradientTransform="matrix(.87331 0 0 1 243.89 -242.31)" x2="1142.8" y2="719.45"/>
    <linearGradient id="linearGradient6407" x1="1470.8" gradientUnits="userSpaceOnUse" y1="597.62" gradientTransform="matrix(1.141 0 0 1.0739 -449.66 -176.98)" x2="1484.6" y2="621.39">
      <stop id="stop44869-2" stop-color="#fff" offset="0"/>
      <stop id="stop44871-0" stop-color="#f8c367" offset="1"/>
    </linearGradient>
    <linearGradient id="linearGradient6409" x1="1470.8" xlink:href="#linearGradient5443-0" gradientUnits="userSpaceOnUse" y1="597.62" gradientTransform="matrix(1.141 0 0 .82060 -449.58 -22.834)" x2="1484.6" y2="621.39"/>
    <linearGradient id="linearGradient6411" x1="1056" xlink:href="#linearGradient5443-0" gradientUnits="userSpaceOnUse" y1="490.22" gradientTransform="matrix(-.97276 0 0 1 2265.2 -6.3748)" x2="1065.7" y2="510.61"/>
    <linearGradient id="linearGradient6413" x1="1056" xlink:href="#linearGradient5443-0" gradientUnits="userSpaceOnUse" y1="490.22" gradientTransform="translate(185.27 -5.9836)" x2="1065.7" y2="510.61"/>
    <linearGradient id="linearGradient6415" x1="304.76" gradientUnits="userSpaceOnUse" y1="64.295" gradientTransform="matrix(1.7376 0 0 1.728 -513.76 -84.832)" x2="335.3" y2="81.926">
      <stop id="stop4436-5" stop-color="#d3d7cf" offset="0"/>
      <stop id="stop4438-9" stop-color="#babdb6" offset=".18304"/>
      <stop id="stop4440-4" stop-color="#fff" offset=".31893"/>
      <stop id="stop4442-6" stop-color="#babdb6" offset=".87644"/>
      <stop id="stop4444-9" stop-color="#eeeeec" offset="1"/>
    </linearGradient>
    <linearGradient id="linearGradient6417" x1="324.5" xlink:href="#linearGradient7444-2" gradientUnits="userSpaceOnUse" y1="70.282" gradientTransform="matrix(1.7376 0 0 1.728 -513.76 -84.832)" x2="330.06" y2="99.274"/>
    <linearGradient id="linearGradient6419" x1="302.29" xlink:href="#linearGradient7381-7" gradientUnits="userSpaceOnUse" y1="58.443" gradientTransform="matrix(1.7376 0 0 1.728 -513.76 -84.832)" x2="308.65" y2="60.768"/>
    <linearGradient id="linearGradient6421" x1="326.6" gradientUnits="userSpaceOnUse" y1="75.575" gradientTransform="matrix(1.7376 0 0 1.728 -513.76 -84.832)" x2="317.16" y2="88.006">
      <stop id="stop7423-8" stop-color="#fff" offset="0"/>
      <stop id="stop7425-1" stop-color="#fff" stop-opacity="0" offset="1"/>
    </linearGradient>
    <radialGradient id="radialGradient6423" xlink:href="#linearGradient6221-6" gradientUnits="userSpaceOnUse" cy="34.498" cx="21.96" gradientTransform="matrix(.57922 0 0 .23986 -4.236 49.351)" r="12.728"/>
    <radialGradient id="radialGradient6425" xlink:href="#linearGradient6221-6" gradientUnits="userSpaceOnUse" cy="34.498" cx="21.96" gradientTransform="matrix(.22665 0 0 .090574 3.1478 54.912)" r="12.728"/>
    <radialGradient id="radialGradient6427" xlink:href="#linearGradient6221-6" gradientUnits="userSpaceOnUse" cy="34.498" cx="21.96" gradientTransform="matrix(.77229 0 0 .23992 34.967 48.77)" r="12.728"/>
    <radialGradient id="radialGradient6429" xlink:href="#linearGradient6221-6" gradientUnits="userSpaceOnUse" cy="34.498" cx="21.96" gradientTransform="matrix(.31594 0 0 .090597 45.342 54.291)" r="12.728"/>
    <linearGradient id="linearGradient6431" x1="97.442" gradientUnits="userSpaceOnUse" y1="35.152" gradientTransform="matrix(1.0384 -1.036 .90828 .90612 -89.936 104.18)" x2="90.221" y2="35.079">
      <stop id="stop4958-8" stop-color="#f8b17e" offset="0"/>
      <stop id="stop4960-6" stop-color="#e35d4f" offset=".26238"/>
      <stop id="stop4962-0" stop-color="#c6262e" offset=".66347"/>
      <stop id="stop4964-4-6" stop-color="#690b54" offset="1"/>
    </linearGradient>
    <linearGradient id="linearGradient6433" x1="29.278" gradientUnits="userSpaceOnUse" y1="34.023" gradientTransform="matrix(1.2622 0 0 1.26 1.0705 1.429)" x2="36.001" y2="27.273">
      <stop id="stop2492-6" stop-color="#791235" offset="0"/>
      <stop id="stop2494-8" stop-color="#dd3b27" offset="1"/>
    </linearGradient>
    <linearGradient id="linearGradient6435" x1="-6.3078" xlink:href="#linearGradient6221-6" gradientUnits="userSpaceOnUse" y1="44.229" gradientTransform="matrix(.63166 -.62958 1.0718 1.0683 .93013 -9.9235)" x2="-9.7747" y2="44.14"/>
    <linearGradient id="linearGradient6438" x1="-2.1966" gradientUnits="userSpaceOnUse" y1="40.972" gradientTransform="matrix(1.0992 -3.9001e-8 0 2.1905 -35.746 -74.299)" x2="-10.566" y2="40.949">
      <stop id="stop4101-8" stop-color="#edd563" offset="0"/>
      <stop id="stop4103-8" stop-color="#e08223" offset="1"/>
    </linearGradient>
    <linearGradient id="linearGradient6440" x1="-45.569" gradientUnits="userSpaceOnUse" y1="7.714" gradientTransform="matrix(1.362 0 0 1.362 11.25 .010777)" x2="-36.083" y2="12.324">
      <stop id="stop4095-7" stop-color="#bb5e12" offset="0"/>
      <stop id="stop4097-7" stop-color="#cd8033" offset="1"/>
    </linearGradient>
    <radialGradient id="radialGradient6442" xlink:href="#linearGradient6221-6" gradientUnits="userSpaceOnUse" cy="21.623" cx="25.977" gradientTransform="matrix(-1.4139 -1.3929 1.1178 -1.1012 45.03 90.751)" r="2"/>
    <radialGradient id="radialGradient6444" xlink:href="#linearGradient5443-0" gradientUnits="userSpaceOnUse" cy="11.84" cx="-39.458" gradientTransform="matrix(3.1553 -.21904 .38456 8.008 80.086 -88.127)" r="3.906"/>
    <linearGradient id="linearGradient6446" x1="25.572" xlink:href="#linearGradient7381-7" gradientUnits="userSpaceOnUse" y1="20.762" gradientTransform="matrix(-1.306 0 0 -1.2987 57.122 68.481)" x2="27.368" y2="22.476"/>
    <linearGradient id="linearGradient6448" x1="22.376" xlink:href="#linearGradient7444-2" gradientUnits="userSpaceOnUse" y1="35.624" gradientTransform="matrix(1.3116 0 0 1.31 -6.6484 -6.3458)" x2="31.089" y2="26.885"/>
    <linearGradient id="linearGradient6450" x1="-10.535" xlink:href="#linearGradient6221-6" gradientUnits="userSpaceOnUse" y1="36.902" gradientTransform="matrix(.80228 0 0 1.9402 -41.044 -59.217)" x2="-7.0093" y2="36.912"/>
    <linearGradient id="linearGradient6452" x1="-5.9351" xlink:href="#linearGradient6221-6" gradientUnits="userSpaceOnUse" y1="40.39" gradientTransform="matrix(.68775 0 0 1.9346 -39.056 -57.996)" x2="-10.048" y2="40.377"/>
    <linearGradient id="linearGradient6454" x1="58.548" xlink:href="#linearGradient5443-0" gradientUnits="userSpaceOnUse" y1="37.501" gradientTransform="matrix(1.379 0 0 2.8585 -120.78 -89.266)" x2="56.447" y2="37.586"/>
    <linearGradient id="linearGradient6456" x1="54.765" xlink:href="#linearGradient5443-0" gradientUnits="userSpaceOnUse" y1="1" gradientTransform="matrix(-.91734 -.91833 .91734 -.91833 55.913 108.22)" x2="54.721" y2="12.585"/>
  </defs>
  <rect id="256x256" width="256" y="597.23" x="-195.43" height="256" display="none" fill="#eeeeec"/>
  <rect id="48x48" width="48" y="597.23" x="-257.43" height="48" display="none" fill="#eeeeec"/>
  <text id="text6091" style="text-transform:none;text-indent:0pt" line-height="125%" font-weight="bold" xml:space="preserve" font-size="56.115px" display="none" y="598.49158" x="-640.33948" font-family="Myriad" fill="#2e3436">
    <tspan id="tspan6093" y="598.49158" x="-640.33948">audio-x-generic</tspan>
  </text>
  <rect id="256x256-4" width="256" y="597.23" x="-195.43" height="256" display="none" fill="#eeeeec"/>
  <rect id="48x48-2" width="48" y="597.23" x="-257.43" height="48" display="none" fill="#eeeeec"/>
  <text id="text6091-9" style="block-progression:tb;text-transform:none;text-indent:0" line-height="125%" font-weight="bold" xml:space="preserve" font-size="56.115px" display="none" y="598.49158" x="-640.33942" font-family="Myriad" fill="#2e3436">
    <tspan id="tspan6093-2" y="598.49158" x="-640.33942">audio-x-generic</tspan>
  </text>
  <rect id="rect2877" width="256" y="597.27" x="-195.93" height="256" display="none" fill="#eeeeec"/>
  <rect id="rect2879" width="48" y="597.27" x="-257.93" height="48" display="none" fill="#eeeeec"/>
  <text id="text2899" style="block-progression:tb;text-transform:none;text-indent:0" line-height="125%" font-weight="bold" xml:space="preserve" font-size="56.115px" display="none" y="598.53046" x="-640.83942" font-family="Myriad" fill="#2e3436">
    <tspan id="tspan2901" y="598.53046" x="-640.83942">audio-x-generic</tspan>
  </text>
  <g id="g5281" transform="translate(-221.93 564.41)"/>
  <g id="g5156" transform="translate(-221.93 564.41)"/>
  <g id="g5229" transform="translate(-221.93 564.41)"/>
  <g id="g6061" transform="matrix(3.5175 0 0 3.5175 1559.4 -1210.8)">
    <g id="g49725" transform="matrix(2.6256 0 0 2.6256 -3627.5 -861.68)" fill-rule="evenodd">
      <path id="path49470" fill="#fbdea9" d="m1232.6 487.98 14.03-0.32165-4.209 21.369-6.8395-0.16082-2.9814-20.886z"/>
      <path id="path49472" stroke-linejoin="round" d="m1230.7 487.85 7.7159 5.1439h2.0003l7.4302-4.2866 0.2857-12.574s-0.6925-8.4956-9.7162-8.5732c-7.0244-0.0624-8.0017 10.859-8.0017 10.859l0.2858 9.4305z" stroke="#996508" stroke-linecap="round" stroke-width="1px" fill="url(#radialGradient6395)"/>
      <path id="path49474" fill="url(#linearGradient6397)" d="m1230.3 481.12s-3.8578-6.3584-2.8577-10.288c1.0002-3.9294 3.0721-6.2155 6.8585-5.4297 2.8894 0.59967 4.8581 4.0008 4.8581 4.0008l-4.8581 0.28578-4.0008 11.431z"/>
      <path id="path49476" fill="url(#linearGradient6399)" d="m1230.8 481.45s-3.8579-6.3584-2.8578-10.288c1.0002-3.9294 3.072-6.2156 6.8586-5.4297 2.8893 0.59965 4.858 4.0008 4.858 4.0008l-4.858 0.28576-4.0008 11.431z"/>
      <path id="path49478" filter="url(#filter45683)" transform="matrix(.88342 0 0 .88454 -41.816 -51.29)" fill="url(#linearGradient6401)" d="m1440.6 587.36s0.4183-0.0954 0.8289 0.5129c5.0149 7.4281 16.042 7.1915 18.437 12.378 0.4132 0.89471 0.971 0.66079 0.971 0.66079s2.7863-5.1439 0.8573-10.002-3.7718-6.569-8.0017-8.2874c-4.5724-1.8575-5.7869-0.5001-9.1447 0.57155s-3.948 4.1665-3.948 4.1665z"/>
      <path id="path49480" fill="url(#linearGradient6403)" d="m1229.9 466.97s0.4183-0.0953 0.8289 0.5129c5.0148 7.4281 16.042 7.1915 18.437 12.378 0.4132 0.89471 0.971 0.66079 0.971 0.66079s2.7864-5.1439 0.8574-10.002-3.7719-6.569-8.0018-8.2874c-4.5724-1.8575-5.7869-0.5001-9.1447 0.57155s-3.9479 4.1665-3.9479 4.1665z"/>
      <path id="path49482" fill="url(#linearGradient6405)" d="m1231 467.29s0.3653-0.0954 0.7239 0.51289c10.185 7.6649 27.844 3.0488 10.71-5.251-5.1654-1.751-3.6683-0.50009-7.9862 0.57155-3.0302 0.75206-3.4478 4.1666-3.4478 4.1666z"/>
      <path id="path49484" opacity=".54925" fill="url(#linearGradient6407)" d="m1234.2 473.18c3.8015 2.4988 7.6031 4.1457 11.948 4.9408v9.0297c-4.7669 2.8963-8.6289 2.726-13.215 0.51113l-0.9051-8.689 2.1724-5.7926z"/>
      <path id="path49486" fill="url(#linearGradient6409)" d="m1234.3 473.99c3.8015 1.9095 7.603 3.168 11.948 3.7755v6.9001c-4.767 2.2132-8.6288 2.0831-13.215 0.39058l-0.9053-6.6397 2.1726-4.4265z"/>
      <path id="path49488" stroke-linejoin="round" d="m1245.7 492.67-12.994 17.964 26.98 0.4878s-0.464-10.982-3.1326-14.509c-3.7448-3.1958-10.853-3.943-10.853-3.943z" stroke="#000" stroke-linecap="round" stroke-width="1px"/>
      <path id="path49490" stroke-linejoin="round" d="m1233.9 493.3 9.2116 17.249-23.197 0.0443s0.8779-11.396 3.5465-14.923c3.7446-3.1958 10.439-2.3701 10.439-2.3701z" stroke="#000" stroke-linecap="round" stroke-width="1px"/>
      <path id="path49492" fill="url(#linearGradient6411)" d="m1233.6 493.07 5.155 12.423-18.882-0.58536s0.4515-4.982 3.0474-8.5089c3.6426-3.1958 10.68-3.3292 10.68-3.3292z"/>
      <path id="path49494" fill="url(#linearGradient6413)" d="m1245.9 492.84-7.3358 11.964 21.321 0.4878s-0.464-4.982-3.1326-8.5089c-3.7448-3.1958-10.853-3.943-10.853-3.943z"/>
    </g>
    <g id="g3997" transform="matrix(.35332 0 0 .35332 -359.74 453.66)">
      <path id="path6912" stroke-linejoin="round" style="enable-background:new" d="m16.524 4.5014c-1.6551-0.31324-0.63726 1.1754-0.21911 1.7039 1.2034 2.1736 2.4675 4.3168 3.6323 6.5097 0.32388 1.4731-0.94902 2.6937-2.0009 3.5193-1.6697 1.1622-3.774 2.2362-5.8596 1.7306-1.05-0.326-1.31-1.502-1.865-2.325-1.1381-2.015-2.26-4.043-3.4084-6.0494-1.057-0.0311-1.0607 1.6904-1.2078 2.5254-0.36797 3.5123 0.30692 7.4727 3.0263 9.955 2.2086 2.038 5.4077 2.8303 8.34 2.2988 2.5809 0.80851 5.0506 2.1008 6.9719 4.0294 1.7635-1.8693 3.527-3.7385 5.2905-5.6078-1.711-1.68-3.133-3.679-4.016-5.917 0.837-3.054-0.239-6.415-2.488-8.5959-1.717-1.7176-3.86-3.0975-6.196-3.7767z" fill-rule="evenodd" stroke-dashoffset=".3612" stroke="url(#linearGradient6417)" stroke-linecap="round" fill="url(#linearGradient6415)"/>
      <path id="path7379" style="enable-background:new" fill-rule="evenodd" fill="url(#linearGradient6419)" d="m16.528 5.1324c0.0325 0.012055 0.01211 0.053907 0 0.054085l3.9096 6.966c0.52741 0.93844 0.147 2.0467-0.4887 2.97-0.64202 0.93241-1.6368 1.8358-2.9322 2.538-1.2982 0.70368-2.6598 1.0416-3.801 1.08-1.1387 0.03835-2.2075-0.28496-2.715-1.188l-3.9099-7.02c-0.022414-0.0034-0.058034 0.0034-0.054387 0 0.035794-0.03802 0.00694 0.02765 0 0.05408-0.72096 3.0899-0.34703 6.6612 0.97739 9.018 1.8116 3.2239 5.594 4.7637 9.3395 4.104 3.7279-0.66359 6.9155-3.8935 7.7105-6.966 0.50201-1.9899 0.28814-4.1284-0.76019-5.994-1.3208-2.3504-4.2265-4.5638-7.2761-5.616l0.000087-0.0001726z"/>
      <path id="path2911-3" opacity=".7" style="enable-background:new" d="m16.975 5.637c1.3398 2.3286 2.6497 4.4221 3.8528 6.8255 0.40264 1.6794-0.83105 3.2174-2.0153 4.2563-1.9925 1.573-4.6736 2.7611-7.2314 2.0501-1.3008-0.55721-1.6952-2.0164-2.4028-3.1209l-2.4723-4.348c-0.6995 3.293-0.1058 6.932 2.294 9.888 2.0005 2.0305 5.0566 2.7324 7.8125 2.25 2.1189 0.21234 5.6091 2.7359 7.279 4.0562l4.5425-4.4742c-1.953-1.955-3.296-3.274-4.29-5.895 0.222-1.55 0.434-3.151-0.059-4.676-0.805-2.7696-3.012-4.7462-5.467-6.0057l-1.843-0.8063z" stroke-dashoffset=".3612" stroke="url(#linearGradient6421)" stroke-linecap="round" stroke-width=".7" fill="none"/>
      <path id="rect7166" opacity=".1" style="enable-background:new" fill-rule="evenodd" d="m24.471 22.069c-0.17954 0.01487-0.33805 0.04961-0.45081 0.15863l-0.81966 0.83279c-0.45102 0.43601-0.1223 1.5084 0.77867 2.3794l2.7868 2.657 2.459-2.4191-2.7458-2.657c-0.675-0.653-1.469-0.996-2.008-0.952z"/>
      <path id="path5331" opacity=".25" fill="url(#radialGradient6423)" d="m15.856 57.579a7.5 2.9992 0 1 1 -15 0 7.5 2.9992 0 1 1 15 0z"/>
      <path id="path6769" opacity=".3" fill="url(#radialGradient6425)" d="m11.01 58.019a2.9348 1.1326 0 0 1 -5.8696 0 2.9348 1.1326 0 1 1 5.8696 0z"/>
      <path id="path6765" opacity=".25" fill="url(#radialGradient6427)" d="m61.756 57a10 3 0 0 1 -20 0 10 3 0 1 1 20 0z"/>
      <path id="path6773" opacity=".3" fill="url(#radialGradient6429)" d="m56.301 57.399a4.0909 1.1329 0 0 1 -8.1818 0 4.0909 1.1329 0 1 1 8.1818 0z"/>
      <path id="path6899" stroke-linejoin="round" style="enable-background:new" d="m23.194 27.719 26.847 28.597c1.7612 1.757 4.7764 1.527 6.7899-0.48182 2.0136-2.0088 2.2441-5.0168 0.48297-6.7738l-28.665-26.783-5.4547 5.4417zm28.182 22.674c1.001-0.99861 2.6355-0.99861 3.6364 0 1.001 0.99862 1.001 2.6292 0.000001 3.6278-1.001 0.99861-2.6355 0.99861-3.6364 0-1.001-0.99862-1.001-2.6292 0-3.6278z" stroke-dashoffset=".7" stroke="url(#linearGradient6433)" stroke-linecap="round" stroke-width=".99963" fill="url(#linearGradient6431)"/>
      <path id="rect6533" opacity=".23106" fill="url(#linearGradient6435)" d="m28.164 27.295c0.69988-0.69757 1.981-0.54381 2.8725 0.34475l18.544 16.802c0.89146 0.88856 0.2026 3.0068-0.49727 3.7044-0.69988 0.69758-2.8246 1.3856-3.716 0.49701l-16.857-18.485c-0.892-0.888-1.046-2.165-0.346-2.863z"/>
      <g id="g2892">
        <rect id="rect5288" stroke-linejoin="round" transform="matrix(-.70990 -.70430 .70640 -.70781 0 0)" rx="4.9948" ry="4.9948" height="39.053" width="12.041" stroke="url(#linearGradient6440)" stroke-linecap="round" y="-2.7302" x="-50.586" stroke-width="1.0002" fill="url(#linearGradient6438)"/>
        <path id="path4983" opacity=".3" fill="url(#radialGradient6442)" d="m29.652 26.503a4.9113 2.8071 45 1 1 6.8945 6.9955 4.9113 2.8071 45 0 1 -6.8945 -6.9955z"/>
        <rect id="rect5292" opacity=".6" stroke-linejoin="round" rx="3.9834" ry="3.9833" transform="matrix(-.71116 -.70303 .70626 -.70795 0 0)" width="9.6238" stroke="url(#radialGradient6444)" stroke-linecap="round" y="-2.0152" x="-49.38" height="37.459" fill="none"/>
        <path id="path5286" stroke-linejoin="round" d="m7.1589 58.5 6.1538-4.2461 0.747-2.5637 19.075-19.082c1.2973-1.4611-1.1487-4.0537-2.7704-2.755l-19.083 19.057-2.5782 0.73-4.2038 6.172s2.6589 2.6885 2.6589 2.6885z" stroke="url(#linearGradient6448)" stroke-linecap="round" fill="url(#linearGradient6446)"/>
        <rect id="rect2804" opacity=".2" transform="matrix(-.71205 -.70212 .70724 -.70698 0 0)" rx=".93273" ry="1.0258" height="30.338" width="1.9583" y="2.8697" x="-49.067" fill="url(#linearGradient6450)"/>
        <rect id="rect5290" opacity=".2" transform="matrix(-.71305 -.70112 .707 -.70721 0 0)" rx=".93084" ry="1.0237" height="30.954" width="2.751" y="3.9117" x="-45.934" fill="url(#linearGradient6452)"/>
        <rect id="rect5398" opacity=".25" transform="matrix(-.71205 -.70212 .70724 -.70698 0 0)" rx=".93273" ry="1.0258" height="30.338" width="1.9583" y="2.9194" x="-41.996" fill="url(#linearGradient6454)"/>
        <path id="path5450" fill="url(#linearGradient6456)" d="m7.2202 57.642 5.4776-3.6706 0.61324-2.3358c0.50444-0.5827-1.4734-2.4227-2.0067-2.0089l-2.3046 0.6426-3.6666 5.4837c0.71986 0.72064 1.1671 1.1684 1.887 1.889z"/>
        <path id="path4979" opacity=".7" stroke-linejoin="round" d="m32.336 31.74c0.09609-0.47908-0.57247-1.0791-1.0306-1.0775-6.4764 6.2826-12.959 12.889-19.338 19.275l-2.5514 0.76768c-1.1193 1.6433-2.2387 3.2867-3.358 4.93 0.42353 0.43667 0.84705 0.87335 1.2706 1.31 1.6668-1.1463 3.3336-2.2925 5.0003-3.4388 0.22758-0.71794 0.38642-1.4764 0.65578-2.1697" stroke="#fff" stroke-linecap="round" fill="none"/>
      </g>
    </g>
  </g>
  <metadata>
    <rdf:RDF>
      <cc:Work>
        <dc:format>image/svg+xml</dc:format>
        <dc:type rdf:resource="http://purl.org/dc/dcmitype/StillImage"/>
        <cc:license rdf:resource="http://creativecommons.org/licenses/publicdomain/"/>
        <dc:publisher>
          <cc:Agent rdf:about="http://openclipart.org/">
            <dc:title>Openclipart</dc:title>
          </cc:Agent>
        </dc:publisher>
        <dc:title>Administrator</dc:title>
        <dc:date>2013-01-26T10:57:08</dc:date>
        <dc:description>Administrador, soporte t&#xC3;&#xA9;cnico</dc:description>
        <dc:source>http://openclipart.org/detail/174534/administrator-by-lbear-174534</dc:source>
        <dc:creator>
          <cc:Agent>
            <dc:title>lbear</dc:title>
          </cc:Agent>
        </dc:creator>
        <dc:subject>
          <rdf:Bag>
            <rdf:li>Admin</rdf:li>
            <rdf:li>administrator</rdf:li>
            <rdf:li>clip art</rdf:li>
            <rdf:li>clipart</rdf:li>
            <rdf:li>support</rdf:li>
            <rdf:li>tech support</rdf:li>
          </rdf:Bag>
        </dc:subject>
      </cc:Work>
      <cc:License rdf:about="http://creativecommons.org/licenses/publicdomain/">
        <cc:permits rdf:resource="http://creativecommons.org/ns#Reproduction"/>
        <cc:permits rdf:resource="http://creativecommons.org/ns#Distribution"/>
        <cc:permits rdf:resource="http://creativecommons.org/ns#DerivativeWorks"/>
      </cc:License>
    </rdf:RDF>
  </metadata>
</svg>
