<?xml version="1.0"?>
<svg xmlns:rdf="http://www.w3.org/1999/02/22-rdf-syntax-ns#" xmlns="http://www.w3.org/2000/svg" xmlns:cc="http://web.resource.org/cc/" xmlns:dc="http://purl.org/dc/elements/1.1/" xmlns:sodipodi="http://inkscape.sourceforge.net/DTD/sodipodi-0.dtd" xmlns:svg="http://www.w3.org/2000/svg" id="Layer_1" style="enable-background:new 0 0 127.154 136.999" space="preserve" sodipodi:version="0.32" viewBox="0 0 127.154 136.999" version="1.1" sodipodi:docname="utenti.svg" sodipodi:docbase="F:\openclip\svg da inviare">
  <defs id="defs177">
    <linearGradient id="XMLID_18_" y2="475.24" gradientUnits="userSpaceOnUse" y1="475.24" gradientTransform="matrix(0 -90.916 -90.916 0 43300 -21773)" x2="-239.25" x1="-240.25">
      <stop id="stop16" stop-color="#fff" offset="0"/>
      <stop id="stop18" stop-color="#0D56AC" offset="1"/>
    </linearGradient>
    <linearGradient id="XMLID_19_" y2="475.25" gradientUnits="userSpaceOnUse" y1="475.25" gradientTransform="matrix(0 -90.916 -90.916 0 43300 -21773)" x2="-238.87" x1="-240.45">
      <stop id="stop23" stop-color="#D82A2A" offset="0"/>
      <stop id="stop25" stop-color="#0B0E1C" offset="1"/>
    </linearGradient>
    <linearGradient id="XMLID_20_" y2="475.25" gradientUnits="userSpaceOnUse" y1="475.25" gradientTransform="matrix(0 -90.916 -90.916 0 43300 -21773)" x2="-238.88" x1="-240.45">
      <stop id="stop30" stop-color="#f00" offset="0"/>
      <stop id="stop32" stop-color="#0D0000" offset="1"/>
    </linearGradient>
    <linearGradient id="XMLID_21_" y2="475.25" gradientUnits="userSpaceOnUse" y1="475.25" gradientTransform="matrix(0 -90.916 -90.916 0 43300 -21773)" x2="-238.88" x1="-240.45">
      <stop id="stop37" stop-color="#970F00" offset="0"/>
      <stop id="stop39" stop-color="#080500" offset="1"/>
    </linearGradient>
    <linearGradient id="XMLID_22_" y2="475.25" gradientUnits="userSpaceOnUse" y1="475.25" gradientTransform="matrix(0 -90.916 -90.916 0 43300 -21773)" x2="-238.88" x1="-240.45">
      <stop id="stop44" stop-color="#B20D0D" offset="0"/>
      <stop id="stop46" stop-color="#110409" offset=".9562"/>
      <stop id="stop48" stop-color="#090409" offset="1"/>
    </linearGradient>
    <linearGradient id="XMLID_23_" y2="450.48" gradientUnits="userSpaceOnUse" y1="450.48" gradientTransform="matrix(-31 63.251 63.251 31 -35773 1111.1)" x2="-236.65" x1="-238.23">
      <stop id="stop65" stop-color="#FFFA5F" offset="0"/>
      <stop id="stop67" stop-color="#9F3300" offset="1"/>
    </linearGradient>
    <linearGradient id="XMLID_24_" y2="475.38" gradientUnits="userSpaceOnUse" y1="475.38" gradientTransform="matrix(0 -90.91 -90.91 0 43279 -21761)" x2="-238.98" x1="-240.48">
      <stop id="stop76" stop-color="#fff" offset="0"/>
      <stop id="stop78" stop-color="#7F6400" offset="1"/>
    </linearGradient>
    <linearGradient id="XMLID_25_" y2="475.37" gradientUnits="userSpaceOnUse" y1="475.37" gradientTransform="matrix(0 -90.91 -90.91 0 43279 -21761)" x2="-238.93" x1="-240.5">
      <stop id="stop83" stop-color="#FFCE00" offset="0"/>
      <stop id="stop85" stop-color="#7F5100" offset="1"/>
    </linearGradient>
    <linearGradient id="XMLID_26_" y2="475.37" gradientUnits="userSpaceOnUse" y1="475.37" gradientTransform="matrix(0 -90.91 -90.91 0 43279 -21761)" x2="-238.93" x1="-240.5">
      <stop id="stop90" stop-color="#FFE600" offset="0"/>
      <stop id="stop92" stop-color="#7F5A00" offset="1"/>
    </linearGradient>
    <linearGradient id="XMLID_28_" y2="475.37" gradientUnits="userSpaceOnUse" y1="475.37" gradientTransform="matrix(0 -90.91 -90.91 0 43279 -21761)" x2="-238.92" x1="-240.51">
      <stop id="stop109" stop-color="#C68526" offset="0"/>
      <stop id="stop111" stop-color="#633400" offset="1"/>
    </linearGradient>
    <linearGradient id="XMLID_29_" y2="454.83" gradientUnits="userSpaceOnUse" y1="454.83" gradientTransform="matrix(.334 106.67 106.67 -.334 -48373 26129)" x2="-242.54" x1="-244.07">
      <stop id="stop122" stop-color="#FFFA5F" offset="0"/>
      <stop id="stop124" stop-color="#9F3300" offset="1"/>
    </linearGradient>
    <linearGradient id="XMLID_30_" y2="475.48" gradientUnits="userSpaceOnUse" y1="475.48" gradientTransform="matrix(0 -90.916 -90.916 0 43263 -21753)" x2="-238.72" x1="-240.72">
      <stop id="stop139" stop-color="#fff" offset="0"/>
      <stop id="stop141" stop-color="#0D56AC" offset="1"/>
    </linearGradient>
    <linearGradient id="XMLID_31_" y2="475.48" gradientUnits="userSpaceOnUse" y1="475.48" gradientTransform="matrix(0 -90.916 -90.916 0 43263 -21753)" x2="-239" x1="-240.57">
      <stop id="stop146" stop-color="#9CD305" offset="0"/>
      <stop id="stop148" stop-color="#084703" offset="1"/>
    </linearGradient>
    <linearGradient id="XMLID_32_" y2="475.48" gradientUnits="userSpaceOnUse" y1="475.48" gradientTransform="matrix(0 -90.916 -90.916 0 43263 -21753)" x2="-239" x1="-240.57">
      <stop id="stop153" stop-color="#C2EF20" offset="0"/>
      <stop id="stop155" stop-color="#0A5116" offset="1"/>
    </linearGradient>
    <linearGradient id="XMLID_33_" y2="475.48" gradientUnits="userSpaceOnUse" y1="475.48" gradientTransform="matrix(0 -90.916 -90.916 0 43263 -21753)" x2="-238.99" x1="-240.58">
      <stop id="stop162" stop-color="#76AA04" offset="0"/>
      <stop id="stop164" stop-color="#063903" offset="1"/>
    </linearGradient>
  </defs>
  <sodipodi:namedview id="base" bordercolor="#666666" borderopacity="1.0" pagecolor="#ffffff"/>
  <path id="path5" fill="#d82a2a" d="m126.33 79.321c0 19.397-18.68 26.149-35.316 25.659-18.615-0.54-34.454-10.401-31.796-30.808 2.264-17.375 16.054-37.169 35.509-35.913 19.873 1.287 31.603 23.077 31.603 41.062"/>
  <path id="path7" fill="#f00" d="m93.029 38.957c-18.915 0-31.709 19.842-33.246 36.897-1.802 20.021 15.439 28.406 33.12 28.406-15.98 0-32.966-7.185-32.103-25.601 0.798-17.025 13.296-37.438 32.216-37.438 18.104 0 29.804 18.666 31.244 34.949 1.71 19.404-13.8 28.09-31.344 28.09 16.974 0 33.434-7.923 32.614-27.052-0.75-17.505-12.96-38.251-32.501-38.251"/>
  <path id="path9" fill="#970f00" d="m68.46 50.711c-10.479 13.129-16.446 37.172-0.326 48.45 13.551 9.479 38.926 9.669 51.426-1.865 13.12-12.113 7.26-35.121-2.66-47.338-13.34-16.417-35.349-15.592-48.44 0.753m-8.98 29.218c0-19.277 14.901-43.735 36.849-40.872 18.791 2.451 29.361 22.976 29.361 40.264 0 34.199-66.21 34.229-66.21 0.608"/>
  <path id="path11" fill="#b20d0d" d="m92.981 95.18c-11.239 0-24.815-1.683-33.012-10.285 5.414 26.935 59.451 26.985 65.141 0.191-7.96 8.462-21.15 10.094-32.129 10.094"/>
  <path id="path13" fill="#b20d0d" d="m93.045 38.588c17.575-0.011 29.345 17.606 31.435 33.488 2.46 18.711-10.14 29.254-27.93 30.324-15.806 0.94-36.236-4.757-36.236-23.902 0-17.403 11.976-38.541 31.046-39.854-19.021 1.281-31.299 21.813-32.09 39.219-0.913 20.081 18.353 27.237 35.49 26.757 16.67-0.48 31.93-8.869 31.14-27.35-0.76-17.698-13.1-38.682-32.855-38.682"/>
  <path id="path20" fill="url(#XMLID_18_)" d="m90.831 37.664c-0.106 0.007-0.106 0.007 0 0m4.044-0.032c0.112 0.008 0.112 0.008 0 0m-3.638-0.001c-0.186 0.014-0.186 0.014 0 0m3.214-0.023c0.217 0.013 0.217 0.013 0 0m-2.797-0.002c-0.25 0.015-0.25 0.015 0 0m2.379-0.018c0.272 0.012 0.272 0.012 0 0m-1.962 0c-0.294 0.012-0.294 0.012 0 0m1.516-0.012c0.344 0.007 0.344 0.007 0 0m-1.067 0c-0.368 0.007-0.368 0.007 0 0m0.525-0.006c-1.441 0 1.437 0 0 0"/>
  <path id="path27" fill="url(#XMLID_19_)" d="m93.017 41.222c-7.705 0-14.813 3.822-20.115 9.23 4.786 5.708 12.18 8.771 19.563 8.771 7.023 0 14.035-2.773 18.835-7.97 4.14-4.496-14.706-10.031-18.283-10.031m0.028-2.378c-4.541 0-8.998 1.272-12.958 3.468-0.917 0.508-8.927 5.789-8.33 6.651 11.815-12.44 29.763-13.116 41.823-0.632 0.61-0.924-7.23-5.856-8.02-6.279-3.85-2.045-8.149-3.208-12.515-3.208"/>
  <path id="path34" fill="url(#XMLID_20_)" d="m93.029 38.957c-4.004 0-24.455 6.344-20.128 11.495 11.27-11.493 28.079-12.096 39.559-0.569 4.13-5.252-15.494-10.926-19.431-10.926"/>
  <path id="path41" fill="url(#XMLID_21_)" d="m93.045 37.57c-4.264 0-24.589 6.54-21.489 11.101 5.214-5.472 12.15-9.509 19.805-10.026-7.602 0.524-14.453 4.635-19.539 10.146 10.757-11.279 27.021-13.278 39.258-2.989-5-4.393-11.336-7.213-18.05-7.213 7.95-0.005 15.29 3.808 20.75 9.436 2.92-4.657-16.842-10.455-20.735-10.455"/>
  <path id="path50" fill="url(#XMLID_22_)" d="m91.36 38.645c-2.389 0.162-22.009 6.908-19.643 10.261 5.117-5.561 11.972-9.732 19.643-10.261m1.685-0.057c7.905-0.005 15.235 3.951 20.565 9.686 0.72-1.113-6.55-5.677-7.62-6.269-3.96-2.183-8.415-3.417-12.945-3.417"/>
  <path id="path52" fill="#d82a2a" d="m115.88 22.022c0 28.5-45.742 28.5-45.742 0s45.742-28.5 45.742 0"/>
  <path id="path54" fill="#f00" d="m77.672 13.775c5.099-5.981 13.903-7.534 21.269-5.69 8.459 2.119 12.839 8.799 14.119 17.09 1.86-11.988-8.22-22.393-20.049-22.393-11.848 0-21.896 10.411-20.052 22.403 0.618-4.021 2.036-8.273 4.713-11.41"/>
  <path id="path56" fill="#b20d0d" d="m107.5 32.939c-2.04 1.692-3.76 1.043-5.99 0.178-4.397-1.704-9.076-1.798-13.648-0.773-2.976 0.667-6.553 2.211-9.428 0.417-4.273-2.666-6.864-8.581-7.475-13.38-1.793 13.719 10.484 25.002 23.871 23.954 12.08-0.945 21.79-11.711 20.23-23.958-0.68 5.297-3.47 10.162-7.56 13.562"/>
  <path id="path58" fill="#970f00" d="m69.503 22.022c0 30.508 49.377 28.465 46.947-1.764-2.27-28.069-46.947-26.491-46.947 1.764m7.783 15.121c-20.72-19.918 11.572-49.343 31.444-30.236 20.59 19.807-11.454 49.457-31.444 30.236"/>
  <path id="path60" fill="#ffce00" d="m97.251 95.012c0 19.388-18.691 26.138-35.311 25.648-18.618-0.54-34.454-10.4-31.795-30.81 2.264-17.377 16.052-37.169 35.507-35.913 19.881 1.288 31.599 23.088 31.599 41.075"/>
  <path id="path62" fill="#ffe600" d="m63.956 54.635c-18.916 0-31.714 19.842-33.249 36.896-1.802 20.019 15.43 28.409 33.106 28.409-15.981 0-32.952-7.19-32.087-25.604 0.797-17.024 13.295-37.435 32.215-37.435 18.108 0 29.797 18.667 31.229 34.949 1.705 19.4-13.786 28.09-31.329 28.09 16.971 0 33.422-7.93 32.603-27.053-0.75-17.497-12.958-38.252-32.488-38.252"/>
  <path id="path69" fill="url(#XMLID_23_)" d="m42.632 64.585c-0.034 0.041-0.012 0.014 0 0m16.865-10.957c-9.217 1.574-16.905 7.862-22.079 15.417 1.956 0.185 2.466-1.763 3.673-3.164 1.745-2.03 1.441-3.216 4.028-5.37 4.13-3.439 9.052-5.971 14.378-6.883m0.372-0.061c-0.444 0.073-0.444 0.073 0 0m0.375-0.056c-0.438 0.067-0.438 0.067 0 0m0.97-0.119c-0.313 0.039-0.625 0.077-0.936 0.115 0.312-0.039 0.623-0.077 0.936-0.115m0.376-0.038c-0.28 0.027-0.28 0.027 0 0m0.389-0.032c-0.264 0.02-0.264 0.02 0 0m3.901-0.006c19.561 1.427 30.989 23.447 30.989 41.595 0 7.519-2.993 14.549-9.154 19.029-3.005 2.19-6.472 3.68-10.042 4.67-2.47 0.68-10.089 0.64-10.976 2.65 19.296-0.83 33.373-12.05 30.805-32.405-2.073-16.453-13.729-34.203-31.622-35.539m-3.507-0.02c-0.254 0.017-0.254 0.017 0 0m3.164-0.001c0.352 0.023 0.352 0.023 0 0m-2.769-0.02c-0.229 0.012-0.229 0.012 0 0m2.394 0c0.286 0.014 0.286 0.014 0 0m-1.996-0.015c-0.211 0.007-0.211 0.007 0 0m1.604 0c0.251 0.007 0.251 0.007 0 0m-0.395-0.01c0.184 0.005 0.184 0.005 0 0m-0.811 0c-0.149 0.005-0.149 0.005 0 0"/>
  <path id="path71" fill="#ffb600" d="m63.904 110.86c-11.241 0-24.817-1.68-33.014-10.29 5.414 26.94 59.457 26.99 65.14 0.19-7.956 8.46-21.146 10.1-32.126 10.1"/>
  <path id="path73" fill="#c68526" d="m63.956 54.266c18.354 0 30.211 18.917 31.663 35.421 1.654 18.793-12.672 27.963-29.947 28.473-15.426 0.45-34.445-5.58-34.445-23.984 0-17.396 11.979-38.539 31.042-39.853-19.015 1.28-31.284 21.821-32.075 39.219-0.913 20.078 18.351 27.238 35.49 26.758 16.671-0.48 31.935-8.87 31.144-27.35-0.76-17.699-13.122-38.684-32.872-38.684"/>
  <path id="path80" fill="url(#XMLID_24_)" d="m59.536 53.623c-0.051 0.006-0.051 0.006 0 0m0.38-0.062c-0.062 0.007-0.062 0.007 0 0m0.362-0.054c-0.045 0.006-0.045 0.006 0 0m1.102-0.132c-0.222 0.023-0.222 0.023 0 0m0.401-0.037c-0.254 0.023-0.254 0.023 0 0m4.02-0.026c0.104 0.006 0.104 0.006 0 0m-3.619-0.003c-0.271 0.018-0.271 0.018 0 0m3.195-0.023c0.214 0.012 0.214 0.012 0 0m-2.782-0.002c-0.296 0.017-0.296 0.017 0 0m2.364-0.018c0.27 0.012 0.27 0.012 0 0m-1.952 0c-0.319 0.012-0.319 0.012 0 0m1.505-0.013c0.343 0.008 0.343 0.008 0 0m-1.06 0c-0.382 0.008-0.382 0.008 0 0m0.517-0.006c-1.443 0 1.444 0 0 0"/>
  <path id="path87" fill="url(#XMLID_25_)" d="m63.941 56.901c-7.707 0-14.817 3.823-20.12 9.234 4.795 5.702 12.184 8.751 19.567 8.751 7.021 0 14.03-2.765 18.829-7.955 4.152-4.492-14.698-10.03-18.276-10.03m0.028-2.38c-3.892 0-7.74 0.932-11.254 2.591-1.09 0.515-10.82 6.521-10.04 7.535 11.819-12.446 29.767-13.125 41.821-0.63 0.564-0.877-6.644-5.525-7.424-5.963-3.996-2.243-8.509-3.533-13.103-3.533"/>
  <path id="path94" fill="url(#XMLID_26_)" d="m63.956 54.635c-4.008 0-24.465 6.348-20.135 11.5 11.266-11.498 28.084-12.104 39.563-0.572 4.124-5.248-15.493-10.928-19.428-10.928"/>
  <path id="path113" fill="url(#XMLID_28_)" d="m62.269 54.323c-2.392 0.161-21.993 6.896-19.637 10.262 5.097-5.567 11.985-9.735 19.637-10.262m2.106-0.052c7.809 0.13 14.925 4.054 20.163 9.681 0.771-1.178-7.116-6.005-8.243-6.592-3.68-1.918-7.765-3.022-11.92-3.089m-0.419-0.005c0.56 0.006 0.56 0.006 0 0"/>
  <path id="path115" fill="#ffce00" d="m86.805 37.7c0 28.499-45.746 28.499-45.746 0 0-28.5 45.746-28.5 45.746 0"/>
  <path id="path117" fill="#ffe600" d="m48.595 29.453c5.098-5.981 13.902-7.535 21.268-5.69 8.46 2.117 12.833 8.8 14.121 17.09 1.858-11.987-8.225-22.392-20.051-22.392-11.86 0-21.874 10.408-20.053 22.401 0.618-4.021 2.037-8.273 4.715-11.409"/>
  <path id="path119" fill="#ffb600" d="m78.419 48.617c-2.039 1.691-3.757 1.043-5.989 0.178-4.395-1.703-9.073-1.797-13.646-0.771-2.977 0.667-6.552 2.211-9.431 0.417-4.274-2.665-6.861-8.583-7.473-13.38-1.797 13.719 10.49 24.999 23.872 23.951 12.089-0.946 21.771-11.707 20.231-23.955-0.684 5.294-3.469 10.159-7.564 13.56"/>
  <path id="path126" fill="url(#XMLID_29_)" d="m40.425 37.7c0 30.51 49.38 28.465 46.944-1.764-2.264-28.07-46.944-26.492-46.944 1.764m7.781 15.122c-20.709-19.929 11.574-49.348 31.443-30.239 20.601 19.81-11.441 49.443-31.443 30.239"/>
  <path id="path128" fill="#9cd305" d="m68.176 110.68c0 19.39-18.681 26.14-35.311 25.66-18.618-0.54-34.455-10.41-31.796-30.81 2.264-17.377 16.053-37.173 35.507-35.915 19.872 1.288 31.6 23.08 31.6 41.065"/>
  <path id="path130" fill="#c2ef20" d="m34.879 70.312c-18.916 0-31.723 19.841-33.261 36.898-1.804 20.02 15.444 28.4 33.119 28.4-15.98 0-32.966-7.18-32.102-25.6 0.797-17.03 13.305-37.433 32.229-37.433 18.104 0 29.795 18.673 31.227 34.953 1.709 19.4-13.796 28.08-31.339 28.08 16.974 0.02 33.435-7.93 32.617-27.05-0.748-17.493-12.957-38.248-32.49-38.248"/>
  <path id="path132" fill="#76aa04" d="m13.553 80.259c-0.564 0.626-0.002-0.001 0 0m18.969-11.227c-0.295 0.027-0.295 0.027 0 0m0.386-0.032c-0.272 0.02-0.272 0.02 0 0m3.897-0.006c19.537 1.426 30.988 23.454 30.988 41.596 0 17.51-15.693 24.94-31.196 25.38-15.172 0.43-34.336-5.09-35.469-23.05-1.169-18.554 11.541-41.825 31.036-43.853-20.311 2.106-34.086 26.161-31.945 45.213 2.007 17.85 21.471 23.19 36.744 22.69 19.504-0.64 34.058-11.74 31.45-32.45-2.071-16.451-13.721-34.182-31.608-35.526m-3.507-0.02c-0.256 0.017-0.256 0.017 0 0m3.164-0.002c0.351 0.024 0.351 0.024 0 0m-2.771-0.019c-0.229 0.012-0.229 0.012 0 0m2.395 0c0.287 0.013 0.287 0.013 0 0m-1.995-0.016c-0.214 0.008-0.214 0.008 0 0m1.603 0c0.253 0.011 0.253 0.011 0 0m-0.395-0.009c0.182 0.004 0.182 0.004 0 0m-0.81 0c-0.152 0.004-0.152 0.004 0 0"/>
  <path id="path134" fill="#7ec405" d="m34.826 126.54c-11.241 0-24.816-1.69-33.014-10.29 5.414 26.94 59.456 26.99 65.14 0.19-7.959 8.46-21.145 10.1-32.126 10.1"/>
  <path id="path136" fill="#76aa04" d="m34.879 69.944c18.348 0 30.211 18.921 31.665 35.416 1.654 18.79-12.677 27.96-29.947 28.47-15.425 0.46-34.447-5.57-34.447-23.98 0-17.4 11.975-38.538 31.045-39.85-19.017 1.284-31.285 21.822-32.076 39.22-0.911 20.08 18.337 27.24 35.478 26.75 16.668-0.47 31.945-8.86 31.154-27.34-0.759-17.706-13.116-38.686-32.872-38.686"/>
  <path id="path143" fill="url(#XMLID_30_)" d="m32.301 69.052c-0.183 0.019-0.183 0.019 0 0m0.402-0.036c-0.241 0.023-0.241 0.023 0 0m4.022-0.027c0.106 0.007 0.106 0.007 0 0m-3.619-0.003c-0.265 0.019-0.265 0.019 0 0m3.195-0.023c0.215 0.013 0.215 0.013 0 0m-2.781-0.002c-0.296 0.018-0.296 0.018 0 0m2.364-0.016c0.269 0.011 0.269 0.011 0 0m-1.953-0.002c-0.32 0.013-0.32 0.013 0 0m1.505-0.012c0.344 0.007 0.344 0.007 0 0m-1.061 0c-0.379 0.007-0.379 0.007 0 0m0.52-0.006c-1.442 0 1.437 0 0 0"/>
  <path id="path150" fill="url(#XMLID_31_)" d="m34.866 72.579c-7.707 0-14.819 3.819-20.125 9.229 4.788 5.705 12.174 8.771 19.559 8.771 7.026 0 14.041-2.768 18.836-7.971 4.146-4.497-14.695-10.029-18.27-10.029m0.029-2.38c-3.892 0-7.742 0.932-11.255 2.591-1.094 0.518-10.819 6.496-10.042 7.531 11.819-12.438 29.759-13.122 41.817-0.635 0.61-0.991-7.195-5.841-8.014-6.277-3.844-2.046-8.142-3.21-12.506-3.21"/>
  <path id="path157" fill="url(#XMLID_32_)" d="m34.879 70.312c-4.01 0-24.454 6.34-20.139 11.495 11.269-11.487 28.084-12.1 39.56-0.567 4.128-5.253-15.486-10.928-19.421-10.928"/>
  <path id="path166" fill="url(#XMLID_33_)" d="m33.195 70c-2.395 0.161-21.988 6.878-19.643 10.259 5.098-5.567 11.989-9.731 19.643-10.259m2.106-0.051c7.798 0.13 14.923 4.052 20.151 9.678 0.777-1.197-7.099-5.999-8.236-6.593-3.679-1.916-7.762-3.018-11.915-3.085m-0.422-0.005c0.561 0.006 0.561 0.006 0 0"/>
  <path id="path168" fill="#9cd305" d="m57.726 53.378c0 28.5-45.745 28.5-45.745 0 0-28.502 45.745-28.5 45.745 0"/>
  <path id="path170" fill="#c2ef20" d="m19.515 45.13c5.099-5.981 13.903-7.535 21.268-5.69 8.458 2.119 12.836 8.799 14.121 17.09 1.861-11.988-8.225-22.393-20.051-22.393-11.846 0-21.896 10.411-20.051 22.402 0.618-4.02 2.036-8.272 4.713-11.409"/>
  <path id="path172" fill="#7ec405" d="m49.339 64.294c-2.039 1.692-3.757 1.043-5.989 0.178-4.394-1.704-9.074-1.798-13.646-0.772-2.975 0.667-6.551 2.211-9.428 0.417-4.273-2.665-6.863-8.581-7.473-13.381-1.793 13.718 10.484 25.003 23.872 23.955 12.074-0.945 21.789-11.712 20.23-23.958-0.684 5.295-3.468 10.161-7.566 13.561"/>
  <path id="path174" fill="#76aa04" d="m11.346 53.378c0 30.508 49.382 28.464 46.943-1.764-2.263-28.07-46.943-26.491-46.943 1.764m7.782 15.12c-20.717-19.92 11.573-49.342 31.443-30.235 20.597 19.806-11.447 49.447-31.443 30.235"/>
  <metadata>
    <rdf:RDF>
      <cc:Work>
        <dc:format>image/svg+xml</dc:format>
        <dc:type rdf:resource="http://purl.org/dc/dcmitype/StillImage"/>
        <cc:license rdf:resource="http://creativecommons.org/licenses/publicdomain/"/>
        <dc:publisher>
          <cc:Agent rdf:about="http://openclipart.org/">
            <dc:title>Openclipart</dc:title>
          </cc:Agent>
        </dc:publisher>
        <dc:title>Architetto -- utenti</dc:title>
        <dc:date>2010-03-28T12:28:01</dc:date>
        <dc:description>Drawing by Francesco 'Architetto' Rollandin. From OCAL 0.18 release.</dc:description>
        <dc:source>http://openclipart.org/detail/34963/architetto----utenti-by-anonymous</dc:source>
        <dc:creator>
          <cc:Agent>
            <dc:title>Anonymous</dc:title>
          </cc:Agent>
        </dc:creator>
        <dc:subject>
          <rdf:Bag>
            <rdf:li>clip art</rdf:li>
            <rdf:li>clipart</rdf:li>
            <rdf:li>icon</rdf:li>
            <rdf:li>people</rdf:li>
            <rdf:li>user</rdf:li>
          </rdf:Bag>
        </dc:subject>
      </cc:Work>
      <cc:License rdf:about="http://creativecommons.org/licenses/publicdomain/">
        <cc:permits rdf:resource="http://creativecommons.org/ns#Reproduction"/>
        <cc:permits rdf:resource="http://creativecommons.org/ns#Distribution"/>
        <cc:permits rdf:resource="http://creativecommons.org/ns#DerivativeWorks"/>
      </cc:License>
    </rdf:RDF>
  </metadata>
</svg>
